# xmcd CD database file
#
# Track frame offsets:
#	150
#	20441
#	49560
#	76783
#	104055
#	123344
#
# Disc length: 1849 seconds
#
# Revision: 0
# Processed by: cddbd v1.4PL0 Copyright (c) Steve Scherf et al.
# Submitted via: CDex 1.50beta9
#
DISCID=41073706
DTITLE=L'Hijâz'Car  - L'Hijâz'Car 
DYEAR=2003
DGENRE=Jazz
TTITLE0=La Lampe
TTITLE1=Keb Sabkin
TTITLE2=Baston de bergers
TTITLE3=Ouverture d'un Sceau
TTITLE4=Tesknie O Tobie
TTITLE5=Fis Fis
EXTD=YEAR: 2003
EXTT0=
EXTT1=
EXTT2=
EXTT3=
EXTT4=
EXTT5=
PLAYORDER=
